<svg width="208" height="120" viewBox="0 0 208 120" fill="none" xmlns="http://www.w3.org/2000/svg">
<mask id="mask0_2653_2" style="mask-type:luminance" maskUnits="userSpaceOnUse" x="16" y="16" width="176" height="88">
<path d="M16 16.1426H191.989V103.925H16V16.1426Z" fill="white"/>
</mask>
<g mask="url(#mask0_2653_2)">
<path fill-rule="evenodd" clip-rule="evenodd" d="M191.989 16.1426C145.863 35.8456 62.125 35.8456 16 16.1426L30.666 89.2926C68.072 108.764 137.09 108.841 177.323 89.2926L191.99 16.1426H191.989Z" fill="#FF0000"/>
</g>
<path d="M59.4886 51.7273V75H55.2386L45.1136 60.3523H44.9432V75H40.0227V51.7273H44.3409L54.3864 66.3636H54.5909V51.7273H59.4886ZM60.354 75V51.7273H76.0358V55.7841H65.2744V61.3295H75.229V65.3864H65.2744V70.9432H76.0812V75H60.354ZM98.1341 63.3636C98.1341 65.9015 97.653 68.0606 96.6909 69.8409C95.7364 71.6212 94.4333 72.9811 92.7818 73.9205C91.1379 74.8523 89.2894 75.3182 87.2364 75.3182C85.1682 75.3182 83.3121 74.8485 81.6682 73.9091C80.0242 72.9697 78.725 71.6098 77.7705 69.8295C76.8159 68.0492 76.3386 65.8939 76.3386 63.3636C76.3386 60.8258 76.8159 58.6667 77.7705 56.8864C78.725 55.1061 80.0242 53.75 81.6682 52.8182C83.3121 51.8788 85.1682 51.4091 87.2364 51.4091C89.2894 51.4091 91.1379 51.8788 92.7818 52.8182C94.4333 53.75 95.7364 55.1061 96.6909 56.8864C97.653 58.6667 98.1341 60.8258 98.1341 63.3636ZM93.1455 63.3636C93.1455 61.7197 92.8992 60.3333 92.4068 59.2045C91.922 58.0758 91.2364 57.2197 90.35 56.6364C89.4636 56.053 88.4258 55.7614 87.2364 55.7614C86.047 55.7614 85.0091 56.053 84.1227 56.6364C83.2364 57.2197 82.547 58.0758 82.0545 59.2045C81.5697 60.3333 81.3273 61.7197 81.3273 63.3636C81.3273 65.0076 81.5697 66.3939 82.0545 67.5227C82.547 68.6515 83.2364 69.5076 84.1227 70.0909C85.0091 70.6742 86.047 70.9659 87.2364 70.9659C88.4258 70.9659 89.4636 70.6742 90.35 70.0909C91.2364 69.5076 91.922 68.6515 92.4068 67.5227C92.8992 66.3939 93.1455 65.0076 93.1455 63.3636ZM98.579 75V51.7273H107.761C109.526 51.7273 111.03 52.0644 112.272 52.7386C113.515 53.4053 114.462 54.3333 115.113 55.5227C115.772 56.7045 116.102 58.0682 116.102 59.6136C116.102 61.1591 115.768 62.5227 115.102 63.7045C114.435 64.8864 113.469 65.8068 112.204 66.4659C110.946 67.125 109.424 67.4545 107.636 67.4545H101.784V63.5114H106.84C107.787 63.5114 108.568 63.3485 109.181 63.0227C109.802 62.6894 110.265 62.2311 110.568 61.6477C110.878 61.0568 111.034 60.3788 111.034 59.6136C111.034 58.8409 110.878 58.1667 110.568 57.5909C110.265 57.0076 109.802 56.5568 109.181 56.2386C108.56 55.9129 107.772 55.75 106.818 55.75H103.499V75H98.579ZM116.098 75V51.7273H121.018V70.9432H130.995V75H116.098ZM131.054 75V51.7273H146.736V55.7841H135.974V61.3295H145.929V65.3864H135.974V70.9432H146.781V75H131.054ZM152.061 51.7273L156.755 59.6591H156.936L161.652 51.7273H167.209L160.107 63.3636L167.368 75H161.709L156.936 67.0568H156.755L151.982 75H146.345L153.63 63.3636L146.482 51.7273H152.061Z" fill="white"/>
</svg>
